<?xml version="1.0" encoding="UTF-8" standalone="no"?>
<!DOCTYPE svg PUBLIC "-//W3C//DTD SVG 1.1//EN" "http://www.w3.org/Graphics/SVG/1.1/DTD/svg11.dtd">
<svg width="100%" height="100%" viewBox="0 0 200 50" version="1.1" xmlns="http://www.w3.org/2000/svg" xmlns:xlink="http://www.w3.org/1999/xlink" xml:space="preserve" xmlns:serif="http://www.serif.com/" style="fill-rule:evenodd;clip-rule:evenodd;stroke-linejoin:round;stroke-miterlimit:1.41421;">
    <g transform="matrix(3.16994,0,0,3.16994,-52.5042,-31.6075)">
        <rect x="20.954" y="15.551" width="2.352" height="9.048" style="fill-rule:nonzero;"/>
        <path d="M27.554,22.607L28.094,22.607C28.502,22.607 28.866,22.543 29.186,22.415C29.506,22.287 29.776,22.111 29.996,21.887C30.216,21.663 30.384,21.397 30.5,21.089C30.616,20.781 30.674,20.443 30.674,20.075C30.674,19.715 30.614,19.379 30.494,19.067C30.374,18.755 30.204,18.487 29.984,18.263C29.764,18.039 29.494,17.863 29.174,17.735C28.854,17.607 28.494,17.543 28.094,17.543L27.554,17.543L27.554,22.607ZM25.202,15.551L28.682,15.551C29.298,15.551 29.876,15.675 30.416,15.923C30.956,16.171 31.428,16.501 31.832,16.913C32.236,17.325 32.554,17.805 32.786,18.353C33.018,18.901 33.134,19.475 33.134,20.075C33.134,20.667 33.02,21.237 32.792,21.785C32.564,22.333 32.248,22.815 31.844,23.231C31.44,23.647 30.968,23.979 30.428,24.227C29.888,24.475 29.306,24.599 28.682,24.599L25.202,24.599L25.202,15.551Z" style="fill-rule:nonzero;"/>
        <path d="M39.782,17.543L36.986,17.543L36.986,19.055L39.626,19.055L39.626,21.047L36.986,21.047L36.986,22.607L39.782,22.607L39.782,24.599L34.634,24.599L34.634,15.551L39.782,15.551L39.782,17.543Z" style="fill-rule:nonzero;"/>
        <path d="M41.474,24.599L41.474,15.551L43.826,15.551L48.17,21.083L48.17,15.551L50.51,15.551L50.51,24.599L48.17,24.599L43.826,19.067L43.826,24.599L41.474,24.599Z" style="fill-rule:nonzero;"/>
        <path d="M55.838,17.543L55.838,24.599L53.486,24.599L53.486,17.543L51.554,17.543L51.554,15.551L57.77,15.551L57.77,17.543L55.838,17.543Z" style="fill-rule:nonzero;"/>
        <rect x="58.814" y="15.551" width="2.352" height="9.048" style="fill-rule:nonzero;"/>
        <path d="M66.494,17.543L66.494,24.599L64.142,24.599L64.142,17.543L62.21,17.543L62.21,15.551L68.426,15.551L68.426,17.543L66.494,17.543Z" style="fill-rule:nonzero;"/>
        <path d="M72.242,20.255L68.942,15.551L71.75,15.551L73.43,18.023L75.098,15.551L77.906,15.551L74.594,20.255L74.594,24.599L72.242,24.599L72.242,20.255Z" style="fill-rule:nonzero;"/>
    </g>
    <g transform="matrix(1.10541,0,0,1.10541,-0.382509,0.0123223)">
        <circle cx="13.123" cy="9.619" r="6.153"/>
    </g>
    <g transform="matrix(1.10541,0,0,1.10541,-0.480733,0.979726)">
        <circle cx="15.593" cy="10.451" r="2.699" style="fill:white;"/>
    </g>
</svg>
